grf
version=1
nRows=13
nColumns=46
inDegrees=yes
endheader
time	ground_force_1_vx	ground_force_1_vy	ground_force_1_vz	ground_force_1_px	ground_force_1_py	ground_force_1_pz	ground_moment_1_mx	ground_moment_1_my	ground_moment_1_mz	ground_force_2_vx	ground_force_2_vy	ground_force_2_vz	ground_force_2_px	ground_force_2_py	ground_force_2_pz	ground_moment_2_mx	ground_moment_2_my	ground_moment_2_mz	ground_force_3_vx	ground_force_3_vy	ground_force_3_vz	ground_force_3_px	ground_force_3_py	ground_force_3_pz	ground_moment_3_mx	ground_moment_3_my	ground_moment_3_mz	ground_force_4_vx	ground_force_4_vy	ground_force_4_vz	ground_force_4_px	ground_force_4_py	ground_force_4_pz	ground_moment_4_mx	ground_moment_4_my	ground_moment_4_mz	ground_force_5_vx	ground_force_5_vy	ground_force_5_vz	ground_force_5_px	ground_force_5_py	ground_force_5_pz	ground_moment_5_mx	ground_moment_5_my	ground_moment_5_mz
1.987500	0.000000	0.000000	0.000000	0.000000	0.000000	0.000000	0.000000	0.000000	0.000000	0.000000	0.000000	0.000000	0.000000	0.000000	0.000000	0.000000	0.000000	0.000000	0.000000	0.000000	0.000000	0.000000	0.000000	0.000000	0.000000	0.000000	0.000000	11.561342	480.595603	-127.924707	0.142744	0.000000	-0.865061	-0.000000	4.006346	0.000000	4.271986	393.867502	115.317544	0.187092	0.000000	-1.590659	-0.000000	-3.352440	-0.000000
1.988000	0.000000	0.000000	0.000000	0.000000	0.000000	0.000000	0.000000	0.000000	0.000000	0.000000	0.000000	0.000000	0.000000	0.000000	0.000000	0.000000	0.000000	0.000000	0.000000	0.000000	0.000000	0.000000	0.000000	0.000000	0.000000	0.000000	0.000000	11.541523	479.884420	-127.768332	0.142755	0.000000	-0.865059	-0.000000	3.995778	0.000000	4.214144	393.180848	115.247865	0.187133	0.000000	-1.590697	-0.000000	-3.338091	-0.000000
1.988500	0.000000	0.000000	0.000000	0.000000	0.000000	0.000000	0.000000	0.000000	0.000000	0.000000	0.000000	0.000000	0.000000	0.000000	0.000000	0.000000	0.000000	0.000000	0.000000	0.000000	0.000000	0.000000	0.000000	0.000000	0.000000	0.000000	0.000000	11.521654	479.169051	-127.611682	0.142767	0.000000	-0.865057	-0.000000	3.985089	0.000000	4.156017	392.489365	115.175169	0.187175	0.000000	-1.590735	-0.000000	-3.323691	-0.000000
1.989000	0.000000	0.000000	0.000000	0.000000	0.000000	0.000000	0.000000	0.000000	0.000000	0.000000	0.000000	0.000000	0.000000	0.000000	0.000000	0.000000	0.000000	0.000000	0.000000	0.000000	0.000000	0.000000	0.000000	0.000000	0.000000	0.000000	0.000000	11.501732	478.449351	-127.454683	0.142779	0.000000	-0.865055	-0.000000	3.974273	0.000000	4.097646	391.793035	115.099389	0.187217	0.000000	-1.590772	-0.000000	-3.309251	-0.000000
1.989500	0.000000	0.000000	0.000000	0.000000	0.000000	0.000000	0.000000	0.000000	0.000000	0.000000	0.000000	0.000000	0.000000	0.000000	0.000000	0.000000	0.000000	0.000000	0.000000	0.000000	0.000000	0.000000	0.000000	0.000000	0.000000	0.000000	0.000000	11.481765	477.725185	-127.297263	0.142791	0.000000	-0.865053	-0.000000	3.963324	0.000000	4.039065	391.091855	115.020469	0.187258	0.000000	-1.590808	-0.000000	-3.294778	-0.000000
1.990000	0.000000	0.000000	0.000000	0.000000	0.000000	0.000000	0.000000	0.000000	0.000000	0.000000	0.000000	0.000000	0.000000	0.000000	0.000000	0.000000	0.000000	0.000000	0.000000	0.000000	0.000000	0.000000	0.000000	0.000000	0.000000	0.000000	0.000000	11.461761	476.996418	-127.139344	0.142804	0.000000	-0.865050	-0.000000	3.952241	0.000000	3.980309	390.385828	114.938362	0.187301	0.000000	-1.590844	-0.000000	-3.280280	-0.000000
1.990500	0.000000	0.000000	0.000000	0.000000	0.000000	0.000000	0.000000	0.000000	0.000000	0.000000	0.000000	0.000000	0.000000	0.000000	0.000000	0.000000	0.000000	0.000000	0.000000	0.000000	0.000000	0.000000	0.000000	0.000000	0.000000	0.000000	0.000000	11.441731	476.262914	-126.980847	0.142817	0.000000	-0.865047	-0.000000	3.941021	0.000000	3.921414	389.674952	114.853029	0.187343	0.000000	-1.590880	-0.000000	-3.265763	-0.000000
1.991000	0.000000	0.000000	0.000000	0.000000	0.000000	0.000000	0.000000	0.000000	0.000000	0.000000	0.000000	0.000000	0.000000	0.000000	0.000000	0.000000	0.000000	0.000000	0.000000	0.000000	0.000000	0.000000	0.000000	0.000000	0.000000	0.000000	0.000000	11.421683	475.524532	-126.821686	0.142830	0.000000	-0.865044	-0.000000	3.929665	0.000000	3.862418	388.959220	114.764439	0.187386	0.000000	-1.590916	-0.000000	-3.251235	-0.000000
1.991500	0.000000	0.000000	0.000000	0.000000	0.000000	0.000000	0.000000	0.000000	0.000000	0.000000	0.000000	0.000000	0.000000	0.000000	0.000000	0.000000	0.000000	0.000000	0.000000	0.000000	0.000000	0.000000	0.000000	0.000000	0.000000	0.000000	0.000000	11.401623	474.781130	-126.661774	0.142844	0.000000	-0.865041	-0.000000	3.918176	0.000000	3.803360	388.238632	114.672559	0.187429	0.000000	-1.590951	-0.000000	-3.236703	-0.000000
1.992000	0.000000	0.000000	0.000000	0.000000	0.000000	0.000000	0.000000	0.000000	0.000000	0.000000	0.000000	0.000000	0.000000	0.000000	0.000000	0.000000	0.000000	0.000000	0.000000	0.000000	0.000000	0.000000	0.000000	0.000000	0.000000	0.000000	0.000000	11.381561	474.032572	-126.501016	0.142858	0.000000	-0.865037	-0.000000	3.906560	0.000000	3.744284	387.513208	114.577362	0.187472	0.000000	-1.590986	-0.000000	-3.222177	-0.000000
1.992500	0.000000	0.000000	0.000000	0.000000	0.000000	0.000000	0.000000	0.000000	0.000000	0.000000	0.000000	0.000000	0.000000	0.000000	0.000000	0.000000	0.000000	0.000000	0.000000	0.000000	0.000000	0.000000	0.000000	0.000000	0.000000	0.000000	0.000000	11.361510	473.278730	-126.339308	0.142873	0.000000	-0.865033	-0.000000	3.894822	0.000000	3.685234	386.782997	114.478822	0.187515	0.000000	-1.591020	-0.000000	-3.207665	-0.000000
1.993000	0.000000	0.000000	0.000000	0.000000	0.000000	0.000000	0.000000	0.000000	0.000000	0.000000	0.000000	0.000000	0.000000	0.000000	0.000000	0.000000	0.000000	0.000000	0.000000	0.000000	0.000000	0.000000	0.000000	0.000000	0.000000	0.000000	0.000000	11.341490	472.519487	-126.176541	0.142887	0.000000	-0.865029	-0.000000	3.882970	0.000000	3.626252	386.048068	114.376918	0.187559	0.000000	-1.591054	-0.000000	-3.193177	-0.000000
1.993500	0.000000	0.000000	0.000000	0.000000	0.000000	0.000000	0.000000	0.000000	0.000000	0.000000	0.000000	0.000000	0.000000	0.000000	0.000000	0.000000	0.000000	0.000000	0.000000	0.000000	0.000000	0.000000	0.000000	0.000000	0.000000	0.000000	0.000000	11.321518	471.754720	-126.012600	0.142902	0.000000	-0.865025	-0.000000	3.871010	0.000000	3.567381	385.308509	114.271637	0.187603	0.000000	-1.591088	-0.000000	-3.178724	-0.000000
